<?xml version="1.0" standalone="no"?>
<!DOCTYPE svg PUBLIC "-//W3C//DTD SVG 20010904//EN"
 "http://www.w3.org/TR/2001/REC-SVG-20010904/DTD/svg10.dtd">
<svg version="1.0" xmlns="http://www.w3.org/2000/svg"
 width="563.000000pt" height="563.000000pt" viewBox="0 0 563.000000 563.000000"
 preserveAspectRatio="xMidYMid meet">

<g transform="translate(0.000000,563.000000) scale(0.100000,-0.100000)"
fill="#000000" stroke="none">
<path d="M2990 5489 c-25 -5 -72 -14 -105 -19 -239 -37 -305 -70 -305 -152 0
-22 27 -92 50 -128 5 -8 16 -31 25 -50 8 -19 19 -42 25 -50 5 -8 19 -35 30
-60 11 -25 26 -55 33 -67 73 -132 90 -172 77 -187 -7 -9 -21 -16 -32 -16 -24
0 -112 -91 -128 -133 -7 -18 -19 -47 -27 -65 -27 -61 3 -218 52 -272 14 -16
14 -19 -9 -34 -14 -9 -30 -16 -36 -16 -5 0 -70 -60 -143 -132 -113 -112 -179
-193 -232 -279 -5 -10 -24 -37 -40 -60 -28 -41 -48 -77 -74 -139 -6 -14 -15
-32 -20 -40 -10 -18 -25 -52 -41 -100 -7 -19 -18 -48 -25 -65 -7 -16 -19 -50
-25 -75 -7 -25 -17 -56 -23 -70 -22 -53 -46 -218 -53 -360 -7 -150 -4 -143
-74 -164 -66 -20 -176 -79 -257 -138 -28 -21 -54 -38 -58 -38 -4 0 -46 -39
-94 -86 -124 -124 -267 -254 -279 -254 -6 0 -17 8 -24 18 -17 25 -51 42 -81
42 -29 0 -66 -35 -237 -225 -69 -76 -185 -204 -259 -284 -160 -175 -221 -253
-221 -280 0 -22 51 -102 90 -141 26 -27 95 -103 210 -231 36 -40 79 -87 95
-104 17 -18 59 -65 95 -105 36 -40 79 -87 95 -105 17 -17 86 -94 155 -170 130
-144 330 -365 406 -447 40 -43 49 -48 88 -48 41 0 46 4 107 71 35 39 78 86 94
104 17 17 59 65 95 105 36 40 79 87 95 105 17 17 59 64 95 104 36 40 93 102
127 139 35 37 72 86 84 109 18 37 19 47 9 80 -7 21 -16 42 -21 48 -5 5 -9 13
-9 17 0 4 316 8 703 8 764 0 727 -3 853 57 51 24 159 128 510 491 60 63 136
142 169 176 33 34 141 146 240 248 390 402 421 438 441 523 13 58 16 200 4
240 -25 86 -69 158 -125 206 -45 39 -67 50 -146 73 -69 20 -79 20 -148 0 -93
-27 -82 -20 -329 -201 -17 -13 -36 -22 -41 -19 -4 3 -11 43 -14 88 -11 136
-34 282 -55 343 -6 17 -18 53 -26 80 -21 71 -41 123 -49 131 -4 4 -7 14 -7 22
0 24 -126 269 -155 302 -7 8 -24 34 -36 56 -13 23 -44 66 -69 95 -58 69 -271
279 -282 279 -5 0 -20 7 -34 16 -23 15 -23 18 -9 34 23 26 65 147 65 189 0 38
-24 113 -52 166 -24 45 -95 115 -117 115 -10 0 -24 7 -31 15 -11 13 2 46 84
208 54 106 102 199 107 207 24 43 49 106 49 126 0 38 -21 71 -54 87 -71 34
-108 47 -131 47 -14 0 -44 4 -67 10 -176 39 -431 53 -548 29z m443 -214 c32
-8 71 -15 87 -15 17 0 30 -5 30 -12 0 -13 -77 -178 -111 -238 -11 -19 -29 -53
-40 -75 -11 -22 -28 -53 -37 -69 l-18 -30 -158 1 c-86 0 -161 4 -166 9 -4 5
-27 44 -49 87 -23 43 -46 86 -51 95 -38 72 -100 206 -100 218 0 9 11 14 33 14
17 1 55 7 82 15 73 20 421 20 498 0z m-64 -661 c18 -8 44 -14 56 -14 35 0 92
-27 109 -52 9 -13 16 -43 16 -71 0 -40 -5 -53 -29 -78 -29 -29 -64 -38 -76
-19 -3 6 -20 10 -36 10 -16 0 -46 7 -66 15 -25 11 -71 15 -156 15 -114 0 -143
-5 -264 -41 -60 -19 -103 26 -103 106 0 61 20 87 75 102 22 6 60 17 85 24 94
27 325 29 389 3z m-11 -418 c20 -7 55 -19 77 -26 42 -13 137 -67 221 -125 40
-27 119 -107 185 -185 30 -35 66 -78 82 -95 15 -16 30 -39 33 -50 4 -11 16
-33 28 -50 38 -54 83 -138 108 -205 6 -14 16 -38 23 -55 22 -51 40 -112 75
-255 27 -108 30 -139 30 -293 l0 -163 -54 -47 c-30 -26 -59 -47 -64 -47 -4 0
-19 -11 -32 -25 -13 -14 -28 -25 -33 -25 -10 0 -188 -128 -198 -142 -8 -12
-58 -38 -72 -38 -6 0 -27 15 -47 34 -19 19 -62 48 -95 66 -57 30 -67 32 -200
37 -85 4 -143 10 -147 17 -24 36 3 136 37 136 19 0 113 106 130 147 24 57 20
203 -7 261 -23 49 -110 142 -132 142 -8 0 -19 7 -26 15 -8 10 -31 15 -69 15
-50 0 -61 4 -83 28 -42 45 -51 68 -38 106 27 82 112 105 174 49 68 -61 99 -67
145 -24 27 25 31 36 31 78 0 41 -5 53 -27 74 -42 38 -100 79 -112 79 -20 0
-31 39 -31 109 0 60 -3 74 -26 100 -34 41 -79 42 -117 3 -24 -25 -27 -36 -27
-94 0 -76 -12 -118 -35 -118 -22 0 -135 -117 -135 -139 0 -11 -4 -23 -10 -26
-14 -9 -12 -193 3 -236 16 -47 79 -124 126 -153 22 -14 62 -26 100 -31 89 -10
126 -43 126 -112 0 -44 -4 -53 -35 -81 -19 -18 -43 -32 -53 -32 -29 0 -74 27
-133 80 -30 28 -58 50 -62 50 -20 0 -74 -43 -83 -68 -20 -51 -5 -100 46 -152
26 -26 59 -54 73 -61 68 -33 91 -86 62 -140 -20 -36 -56 -22 -178 70 -42 32
-102 70 -132 85 -30 15 -62 33 -70 40 -8 7 -35 18 -60 25 -25 7 -60 19 -78 27
-18 8 -43 14 -56 14 -13 0 -36 5 -52 10 -16 6 -94 11 -174 13 l-145 2 3 100
c4 149 27 269 77 413 48 138 107 261 163 339 12 17 22 36 22 42 0 32 225 280
311 343 69 51 215 128 242 128 10 0 28 5 40 12 51 29 279 31 355 4z m1603
-1358 c22 -18 48 -48 57 -68 21 -44 22 -146 2 -186 -17 -35 -86 -110 -354
-385 -111 -113 -286 -295 -391 -404 -334 -348 -479 -490 -523 -513 l-43 -22
-811 0 -812 0 -49 53 c-26 28 -76 83 -110 121 -34 38 -87 97 -118 130 -31 34
-74 81 -95 105 -21 24 -64 71 -95 105 -31 34 -74 81 -95 105 -21 24 -66 73
-99 108 -92 98 -93 89 16 198 104 106 277 260 312 278 12 7 40 24 62 37 216
135 521 155 792 52 58 -22 188 -101 225 -135 32 -32 88 -70 123 -87 22 -10 95
-15 289 -17 273 -4 277 -5 349 -55 48 -34 74 -128 58 -213 -10 -54 -31 -86
-85 -129 l-38 -31 -383 -5 c-443 -6 -425 -2 -425 -95 0 -41 5 -58 25 -79 l24
-26 385 0 386 0 66 31 c149 71 234 209 234 381 0 50 4 88 10 88 5 0 25 14 43
30 19 17 39 30 44 30 5 0 20 11 33 25 13 14 27 25 32 25 11 0 171 115 193 140
10 11 23 20 29 20 6 0 39 22 73 48 35 26 104 76 155 112 50 36 108 80 128 98
21 17 41 32 44 32 4 0 37 21 74 48 109 78 114 80 170 81 45 1 59 -4 93 -31z
m-3818 -836 c24 -31 198 -226 302 -337 17 -18 59 -65 95 -105 36 -40 79 -88
95 -106 60 -65 161 -175 190 -208 103 -116 166 -185 213 -235 28 -31 52 -61
52 -67 0 -5 -26 -37 -57 -70 -32 -33 -89 -95 -128 -138 -38 -43 -81 -90 -95
-105 -14 -15 -56 -62 -95 -105 -92 -103 -95 -106 -104 -106 -5 0 -39 35 -77
78 -37 42 -95 106 -128 142 -66 71 -103 112 -241 265 -50 55 -113 125 -142
155 -28 30 -69 75 -90 99 -21 25 -56 64 -78 87 -22 24 -65 71 -95 105 -30 34
-74 82 -97 106 -24 25 -43 48 -43 52 0 5 10 16 21 27 12 10 69 73 127 139 58
66 133 149 166 185 34 36 84 91 112 123 29 31 56 57 60 57 5 -1 22 -17 37 -38z"/>
</g>
</svg>
