<?xml version="1.0" standalone="no"?>
<!DOCTYPE svg PUBLIC "-//W3C//DTD SVG 20010904//EN"
 "http://www.w3.org/TR/2001/REC-SVG-20010904/DTD/svg10.dtd">
<svg version="1.0" xmlns="http://www.w3.org/2000/svg"
 width="134.000000pt" height="128.000000pt" viewBox="0 0 134.000000 128.000000"
 preserveAspectRatio="xMidYMid meet">

<g transform="translate(0.000000,128.000000) scale(0.100000,-0.100000)"
fill="#000000" stroke="none">
<path d="M662 1240 c-56 -13 -58 -22 -21 -90 32 -57 33 -62 16 -71 -24 -14
-38 -54 -28 -81 7 -19 0 -30 -41 -70 -58 -57 -105 -151 -116 -233 -7 -57 -8
-59 -52 -82 -25 -13 -63 -42 -85 -63 -28 -28 -46 -38 -60 -34 -15 4 -40 -16
-104 -79 -46 -47 -82 -90 -80 -96 7 -20 280 -301 293 -301 7 0 48 36 90 80 59
60 77 85 73 100 -5 19 0 20 169 20 132 0 182 4 202 14 15 8 93 81 175 163 134
137 147 153 147 185 0 50 -8 66 -41 83 -39 21 -59 19 -101 -10 -20 -14 -39
-25 -42 -25 -2 0 -7 23 -11 51 -10 70 -67 179 -119 227 -41 37 -44 44 -39 79
4 31 0 42 -20 61 l-24 23 31 59 c23 44 28 62 20 70 -27 27 -158 38 -232 20z
m178 -50 c0 -6 -9 -29 -20 -50 -19 -36 -24 -40 -60 -40 -36 0 -41 4 -65 43
-14 24 -25 47 -25 50 0 4 38 7 85 7 52 0 85 -4 85 -10z m-5 -154 c16 -11 17
-17 7 -29 -10 -11 -21 -13 -50 -6 -20 4 -54 4 -74 0 -20 -5 -39 -6 -43 -3 -10
10 -5 40 8 45 27 12 134 7 152 -7z m25 -110 c77 -51 131 -148 146 -261 l6 -51
-56 -37 c-53 -35 -58 -37 -79 -22 -12 8 -38 15 -59 15 -43 0 -50 16 -18 45 41
37 13 125 -39 125 -22 0 -34 23 -19 38 7 7 18 7 34 -1 37 -16 54 6 27 35 -12
13 -23 32 -25 43 -5 30 -38 32 -38 3 0 -13 -12 -34 -25 -47 -14 -13 -25 -33
-25 -46 0 -30 37 -75 61 -75 23 0 36 -27 21 -42 -8 -8 -18 -6 -37 6 -46 30
-64 -8 -20 -42 14 -11 25 -25 25 -31 0 -14 -27 -14 -36 0 -13 22 -109 59 -153
59 l-44 0 7 47 c14 104 89 215 171 255 54 25 122 19 175 -16z m328 -288 c28
-28 10 -54 -140 -200 l-153 -147 -201 -1 -202 0 -87 92 -88 92 54 49 c100 89
223 97 312 19 12 -11 42 -17 88 -19 77 -2 99 -13 99 -48 0 -36 -20 -44 -121
-47 -86 -3 -94 -5 -94 -23 0 -18 8 -20 96 -23 91 -3 98 -1 127 23 20 17 32 37
34 57 3 27 17 41 113 109 109 77 140 90 163 67z m-805 -301 l116 -124 -59 -58
c-36 -36 -63 -55 -68 -50 -5 6 -57 61 -116 122 l-107 113 52 60 c29 33 55 60
59 60 4 0 60 -55 123 -123z"/>
</g>
</svg>
